#!OML:ASF F:\VICON\USERDATA\INSTALL\rory3\rory3.ASF
:FULLY-SPECIFIED
:DEGREES
158
root 0.193774 16.6205 -14.9268 14.7607 -10.2539 4.64455
lowerback 27.8718 0.615219 -5.39118
upperback 4.82239 -1.10649 -2.57731
thorax -9.97911 -0.395581 0.59874
lowerneck -12.834 -0.463942 -5.80061
upperneck -8.5719 0.311434 6.93978
head -0.561102 0.339809 3.29448
rclavicle 1.98785e-015 6.36111e-015
rhumerus -38.2082 0.832239 -67.5988
rradius 31.3451
rwrist 22.1634
rhand -29.6479 5.27342
rfingers 7.12502
rthumb -2.97742 -24.6855
lclavicle 1.98785e-015 6.36111e-015
lhumerus -38.3983 -10.214 76.4637
lradius 21.5467
lwrist 6.53008
lhand -18.4204 21.1402
lfingers 7.12502
lthumb 7.86454 50.9739
rfemur -54.916 8.1919 5.91719
rtibia 66.6927
rfoot -27.1523 -5.78013
rtoes -8.62899
lfemur -51.613 5.97058 -27.2602
ltibia 64.5262
lfoot -25.243 1.63855
ltoes 2.9315
159
root 0.19308 16.5675 -14.9317 15.1709 -9.99164 4.65332
lowerback 28.1053 0.557574 -5.3233
upperback 4.85397 -1.16827 -2.52209
thorax -10.0587 -0.423148 0.644565
lowerneck -12.9086 -0.485255 -5.81398
upperneck -9.05384 0.30638 6.90965
head -0.707292 0.337117 3.28743
rclavicle -1.82882e-014 2.5842e-014
rhumerus -38.7579 0.249707 -66.8571
rradius 30.3762
rwrist 22.652
rhand -29.5369 4.80737
rfingers 7.12502
rthumb -2.87027 -25.1531
lclavicle -1.82882e-014 2.5842e-014
lhumerus -39.1169 -9.77498 75.9926
lradius 21.0594
lwrist 6.08845
lhand -17.6736 21.5948
lfingers 7.12502
lthumb 8.58535 51.4002
rfemur -55.7245 8.02636 5.9033
rtibia 67.3558
rfoot -27.151 -6.41558
rtoes -9.74192
lfemur -52.4787 5.8139 -27.3063
ltibia 65.1296
lfoot -25.3357 1.54636
ltoes 2.70423
160
root 0.188842 16.5061 -14.9358 15.5633 -9.75765 4.7116
lowerback 28.4704 0.538065 -5.3022
upperback 4.78022 -1.21349 -2.49571
thorax -10.3261 -0.436162 0.678849
lowerneck -12.972 -0.53441 -5.76527
upperneck -9.37633 0.248467 6.86192
head -0.79924 0.306286 3.26034
rclavicle -1.2921e-014 2.34566e-014
rhumerus -39.5244 -0.257378 -66.1612
rradius 29.4859
rwrist 22.8639
rhand -29.3838 4.65125
rfingers 7.12502
rthumb -2.72233 -25.3111
lclavicle -1.2921e-014 2.34566e-014
lhumerus -39.9845 -9.26717 75.4631
lradius 20.4665
lwrist 5.08615
lhand -17.4699 21.9688
lfingers 7.12502
lthumb 8.7819 51.7661
rfemur -56.4576 7.96073 5.78449
rtibia 68.049
rfoot -27.3201 -6.96599
rtoes -11.0123
lfemur -53.3604 5.67998 -27.392
ltibia 65.7991
lfoot -25.5192 1.41267
ltoes 2.09664
161
root 0.183109 16.4508 -14.9395 15.9234 -9.45713 4.80385
lowerback 28.8331 0.491729 -5.28797
upperback 4.78791 -1.28965 -2.46851
thorax -10.4967 -0.466154 0.730315
lowerneck -13.3179 -0.611867 -5.65421
upperneck -9.64397 0.152523 6.76514
head -0.823924 0.258778 3.204
rclavicle -3.39922e-014 -2.38542e-014
rhumerus -40.1494 -0.853962 -65.4136
rradius 28.6135
rwrist 23.2272
rhand -28.9649 4.54597
rfingers 7.12502
rthumb -2.31785 -25.4212
lclavicle -3.39922e-014 -2.38542e-014
lhumerus -40.7168 -8.90724 74.9922
lradius 19.7648
lwrist 3.67432
lhand -17.903 21.8853
lfingers 7.12502
lthumb 8.36393 51.6997
rfemur -57.1463 7.86905 5.62093
rtibia 68.7705
rfoot -27.6241 -7.28214
rtoes -11.2004
lfemur -54.174 5.44716 -27.4776
ltibia 66.462
lfoot -25.7361 1.32266
ltoes 1.88551
162
root 0.179254 16.3971 -14.9452 16.35 -9.05998 5.00089
lowerback 29.0823 0.368205 -5.2201
upperback 4.71034 -1.44652 -2.47077
thorax -10.7068 -0.533167 0.747102
lowerneck -13.0858 -0.680978 -5.80397
upperneck -10.1166 0.0918239 6.88669
head -1.0147 0.227994 3.27434
rclavicle -8.74653e-015 2.94201e-014
rhumerus -40.9974 -1.35519 -64.6492
rradius 27.796
rwrist 23.5933
rhand -28.5403 4.18937
rfingers 7.12502
rthumb -1.90772 -25.7818
lclavicle -8.74653e-015 2.94201e-014
lhumerus -41.529 -8.57435 74.5096
lradius 19.0397
lwrist 2.41692
lhand -17.9447 22.0177
lfingers 7.12502
lthumb 8.32375 51.8337
rfemur -57.962 7.60435 5.38047
rtibia 69.5385
rfoot -27.8546 -7.62152
rtoes -11.1773
lfemur -55.0723 5.13118 -27.683
ltibia 67.1035
lfoot -25.8627 1.24072
ltoes 2.13779
163
root 0.176142 16.3416 -14.9486 16.7215 -8.70852 5.12608
lowerback 29.0301 0.269863 -4.98442
upperback 4.87134 -1.49354 -2.53079
thorax -10.5011 -0.570036 0.561109
lowerneck -12.8011 -0.786217 -5.91763
upperneck -10.8728 -0.012642 7.01099
head -1.30644 0.172237 3.34086
rclavicle -7.15625e-015 -8.34896e-015
rhumerus -41.5899 -2.34413 -63.8051
rradius 26.8249
rwrist 24.206
rhand -28.2844 4.09083
rfingers 7.12502
rthumb -1.66064 -25.8824
lclavicle -7.15625e-015 -8.34896e-015
lhumerus -41.916 -8.17558 73.7719
lradius 18.4138
lwrist 1.0711
lhand -17.5424 22.2233
lfingers 7.12502
lthumb 8.71193 52.0235
rfemur -58.7061 7.44472 5.20431
rtibia 70.2851
rfoot -28.0922 -7.94046
rtoes -11.1375
lfemur -55.9067 4.91458 -27.8323
ltibia 67.7323
lfoot -26.0301 1.19437
ltoes 1.73959
